# xmcd CD database file
#
# Track frame offsets:
#	150
#	19692
#	51910
#	88260
#	117935
#	152200
#	179057
#	223047
#
# Disc length: 3512 seconds
#
# Revision: 0
# Processed by: cddbd v1.5.1PL2 Copyright (c) Steve Scherf et al.
# Submitted via: CDex 1.51
#
DISCID=710db608
DTITLE=Peter Massink - Viktor Bori Group
DYEAR=1900
DGENRE=Jazz
TTITLE0=Sold American/Still Hip
TTITLE1=Better Times
TTITLE2=Slick Pop
TTITLE3=Martinette
TTITLE4=Chicksong
TTITLE5=My Latin Part
TTITLE6=Fighter
TTITLE7=Food a Shelter
EXTD=
EXTT0=
EXTT1=
EXTT2=
EXTT3=
EXTT4=
EXTT5=
EXTT6=
EXTT7=
PLAYORDER=
